<svg width="184" height="140" viewBox="0 0 184 140" fill="none" xmlns="http://www.w3.org/2000/svg">
<path d="M181.308 111.837H172.841V12.2451C172.841 5.57348 167.278 0 160.615 0H131.365C129.877 0 128.67 1.20975 128.67 2.70033C128.67 4.19091 129.877 5.40065 131.365 5.40065H160.615C164.381 5.40065 167.45 8.65545 167.45 12.2451V111.837H16.5531V12.2451C16.5531 8.47183 19.8091 5.40065 23.3886 5.40065H119.617C121.105 5.40065 122.312 4.19091 122.312 2.70033C122.312 1.20975 121.105 0 119.617 0H23.3886C16.7292 0 11.1624 5.56988 11.1624 12.2451V111.837H2.69536C1.20752 111.837 0 113.046 0 114.537V127.358C0 134.041 5.55965 139.603 12.2262 139.603H87.3011C88.7889 139.603 89.9964 138.394 89.9964 136.903C89.9964 135.412 88.7889 134.203 87.3011 134.203H12.2262C8.45986 134.203 5.39073 130.948 5.39073 127.358V117.237H61.3968V120.319C61.3968 124.787 65.023 128.42 69.4829 128.42H114.517C118.977 128.42 122.603 124.787 122.603 120.319V117.237H178.609V127.358C178.609 131.131 175.353 134.203 171.774 134.203H99.0457C97.5578 134.203 96.3503 135.412 96.3503 136.903C96.3503 138.394 97.5578 139.603 99.0457 139.603H171.774C178.433 139.603 184 134.033 184 127.358V114.537C184 113.046 182.792 111.837 181.305 111.837H181.308ZM117.212 120.319C117.212 121.81 116.005 123.02 114.517 123.02H69.4829C67.9951 123.02 66.7875 121.81 66.7875 120.319V117.237H117.212V120.319Z" fill="url(#paint0_linear_26_78)"/>
<path d="M54.2451 106.054H158.98C160.468 106.054 161.675 104.845 161.675 103.354V13.8833C161.675 12.3927 160.468 11.183 158.98 11.183H25.0238C23.5359 11.183 22.3284 12.3927 22.3284 13.8833V103.354C22.3284 104.845 23.5359 106.054 25.0238 106.054H42.5005C43.9883 106.054 45.1959 104.845 45.1959 103.354C45.1959 101.864 43.9883 100.654 42.5005 100.654H27.7191V16.5836H156.284V100.654H54.2451C52.7572 100.654 51.5497 101.864 51.5497 103.354C51.5497 104.845 52.7572 106.054 54.2451 106.054Z" fill="#837CF3"/>
<path d="M144.932 75.3931V41.8406C144.932 40.35 143.724 39.1403 142.236 39.1403H41.7673C40.2795 39.1403 39.072 40.35 39.072 41.8406V75.3931C39.072 76.8837 40.2795 78.0934 41.7673 78.0934H142.236C143.724 78.0934 144.932 76.8837 144.932 75.3931ZM139.541 72.6928H44.4627V44.5409H139.541V72.6928Z" fill="url(#paint1_linear_26_78)"/>
<path d="M65.7021 54.471C64.7785 52.6204 62.5612 52.9192 61.2315 53.9381C61.3357 52.3143 60.5055 50.3233 58.5361 50.3233C56.5667 50.3233 55.7365 52.3143 55.8407 53.9381C54.5074 52.9192 52.3368 52.6636 51.3664 54.471C50.353 56.3648 51.5964 57.9706 53.1454 58.6187C51.5964 59.2667 50.2703 61.175 51.3664 62.7664C52.5632 64.5018 54.529 64.2713 55.8407 63.2992C55.7365 64.923 56.5667 66.9141 58.5361 66.9141C60.5055 66.9141 61.3357 64.923 61.2315 63.2992C62.5396 64.2749 64.5306 64.5198 65.7057 62.7664C66.8917 60.995 65.4758 59.2667 63.9268 58.6187C65.4758 57.9706 66.6653 56.3108 65.7057 54.471H65.7021Z" fill="#837CF3"/>
<path d="M88.009 54.471C87.0854 52.6204 84.868 52.9192 83.5347 53.9381C83.6389 52.3143 82.8087 50.3233 80.8393 50.3233C78.8699 50.3233 78.0397 52.3143 78.1439 53.9381C76.8106 52.9192 74.64 52.6636 73.6696 54.471C72.6562 56.3648 73.8996 57.9706 75.4486 58.6187C73.8996 59.2667 72.5735 61.175 73.6696 62.7664C74.8664 64.5018 76.8322 64.2713 78.1439 63.2992C78.0397 64.923 78.8699 66.9141 80.8393 66.9141C82.8087 66.9141 83.6389 64.923 83.5347 63.2992C84.8428 64.2749 86.8338 64.5198 88.009 62.7664C89.195 60.995 87.779 59.2667 86.23 58.6187C87.779 57.9706 88.9685 56.3108 88.009 54.471Z" fill="#837CF3"/>
<path d="M110.366 54.471C109.443 52.6204 107.229 52.9192 105.892 53.9381C105.996 52.3143 105.166 50.3233 103.197 50.3233C101.227 50.3233 100.397 52.3143 100.501 53.9381C99.1679 52.9192 96.9972 52.6636 96.0268 54.471C95.0134 56.3648 96.2569 57.9706 97.8058 58.6187C96.2569 59.2667 94.9307 61.175 96.0268 62.7664C97.2236 64.5018 99.1894 64.2713 100.501 63.2992C100.397 64.923 101.227 66.9141 103.197 66.9141C105.166 66.9141 105.996 64.923 105.892 63.2992C107.2 64.2749 109.191 64.5198 110.366 62.7664C111.552 60.995 110.136 59.2667 108.587 58.6187C110.136 57.9706 111.326 56.3108 110.366 54.471Z" fill="#837CF3"/>
<path d="M132.662 54.471C131.739 52.6204 129.525 52.9192 128.188 53.9381C128.292 52.3143 127.462 50.3233 125.493 50.3233C123.523 50.3233 122.693 52.3143 122.797 53.9381C121.464 52.9192 119.293 52.6636 118.323 54.471C117.309 56.3648 118.553 57.9706 120.102 58.6187C118.553 59.2667 117.227 61.175 118.323 62.7664C119.52 64.5018 121.485 64.2713 122.797 63.2992C122.693 64.923 123.523 66.9141 125.493 66.9141C127.462 66.9141 128.292 64.923 128.188 63.2992C129.496 64.2749 131.487 64.5198 132.662 62.7664C133.848 60.995 132.432 59.2667 130.883 58.6187C132.432 57.9706 133.622 56.3108 132.662 54.471Z" fill="#837CF3"/>
<defs>
<linearGradient id="paint0_linear_26_78" x1="-7.32324e-07" y1="69.8016" x2="155.606" y2="-16.5645" gradientUnits="userSpaceOnUse">
<stop stop-color="#9256E2"/>
<stop offset="1" stop-color="#502F7C"/>
</linearGradient>
<linearGradient id="paint1_linear_26_78" x1="39.072" y1="58.6169" x2="144.932" y2="58.6169" gradientUnits="userSpaceOnUse">
<stop stop-color="#9256E2"/>
<stop offset="1" stop-color="#502F7C"/>
</linearGradient>
</defs>
</svg>
