<svg width="139" height="184" viewBox="0 0 139 184" fill="none" xmlns="http://www.w3.org/2000/svg">
<path d="M115.135 149.237C113.999 148.281 112.303 148.429 111.346 149.567C100.262 162.794 85.8076 172.728 69.5 178.349C31.1096 165.129 5.37731 129.063 5.37731 88.3252V26.4476L36.9063 5.38721H63.6423C65.1264 5.38721 66.331 4.18048 66.331 2.69361C66.331 1.20674 65.1264 0 63.6423 0H36.0925C35.562 0 35.0422 0.158025 34.6012 0.452526L1.19734 22.7664C0.448097 23.2656 0 24.106 0 25.0074V88.3216C0 131.685 27.5892 170.035 68.6504 183.747C68.9264 183.84 69.2132 183.887 69.5 183.887C69.7868 183.887 70.0736 183.84 70.3496 183.747C87.9478 177.871 103.546 167.248 115.462 153.033C116.415 151.894 116.268 150.196 115.132 149.237H115.135Z" fill="#837CF3"/>
<path d="M137.806 22.7664L104.402 0.452526C103.961 0.158025 103.442 0 102.911 0H75.3613C73.8771 0 72.6726 1.20674 72.6726 2.69361C72.6726 4.18048 73.8771 5.38721 75.3613 5.38721H102.097L133.626 26.4476V88.3216C133.626 106.872 128.274 124.879 118.147 140.394C117.333 141.641 117.684 143.307 118.925 144.122C120.273 144.902 121.513 144.643 122.646 143.343C133.347 126.951 139 107.924 139 88.3252V25.0074C139 24.106 138.552 23.2656 137.803 22.7664H137.806Z" fill="#837CF3"/>
<path d="M125.094 55.298C126.578 55.298 127.783 54.0912 127.783 52.6043V31.0232C127.783 30.1217 127.335 29.2813 126.586 28.7821L101.004 11.6939C100.563 11.3994 100.043 11.2413 99.5126 11.2413H39.4946C38.964 11.2413 38.4442 11.3994 38.0033 11.6939L12.4216 28.7821C11.6724 29.2813 11.2243 30.1217 11.2243 31.0232V88.3216C11.2243 124.983 34.3395 158.686 68.5464 171.773C69.1845 172.01 69.8262 172.01 70.4643 171.773C104.657 158.689 127.783 124.998 127.783 88.3216V64.3449C127.783 62.858 126.578 61.6513 125.094 61.6513C123.61 61.6513 122.406 62.858 122.406 64.3449V88.3216C122.406 123.094 101.674 153.615 69.5036 166.364C37.3329 153.615 16.6016 123.094 16.6016 88.3216V32.4634L40.3083 16.6285H98.6988L122.406 32.4634V52.6043C122.406 54.0912 123.61 55.298 125.094 55.298Z" fill="url(#paint0_linear_26_61)"/>
<path d="M99.6559 60.4373L65.9187 104.393C64.5457 105.812 63.0831 105.909 61.538 104.677L39.5985 82.6973C38.4585 81.5552 38.4585 79.6984 39.5985 78.5563C40.9751 77.4142 42.3517 77.4142 43.7283 78.5563L61.1472 96.0073C62.5704 97.1386 63.9147 97.0524 65.1802 95.7451L95.0243 56.8638C96.0065 55.5852 97.8456 55.3446 99.1218 56.3287C100.398 57.3127 100.638 59.1552 99.6559 60.4337V60.4373Z" fill="#837CF3"/>
<defs>
<linearGradient id="paint0_linear_26_61" x1="11.2243" y1="91.5961" x2="152.716" y2="91.1285" gradientUnits="userSpaceOnUse">
<stop stop-color="#9256E2"/>
<stop offset="1" stop-color="#502F7C"/>
</linearGradient>
</defs>
</svg>
