<svg width="173" height="162" viewBox="0 0 173 162" fill="none" xmlns="http://www.w3.org/2000/svg">
<path d="M66.3113 144.552C65.7633 144.552 65.2081 144.394 64.7137 144.067C63.3884 143.181 63.0302 141.386 63.9149 140.062L75.4492 122.729C75.9829 121.929 76.8856 121.444 77.8492 121.444H121.099C127.461 121.444 132.633 116.259 132.633 109.889V57.8924C132.633 51.5225 127.461 46.3369 121.099 46.3369H51.9006C45.5389 46.3369 40.3664 51.5225 40.3664 57.8924V109.889C40.3664 116.259 45.5389 121.444 51.9006 121.444H60.5514C62.1454 121.444 63.4349 122.736 63.4349 124.333C63.4349 125.93 62.1454 127.222 60.5514 127.222H51.9006C42.3616 127.222 34.5992 119.449 34.5992 109.889V57.8924C34.5992 48.3358 42.358 40.5592 51.9006 40.5592H121.099C130.638 40.5592 138.401 48.3322 138.401 57.8924V109.889C138.401 119.445 130.642 127.222 121.099 127.222H79.3931L68.7149 143.267C68.1597 144.103 67.2463 144.552 66.3113 144.552Z" fill="#837CF3"/>
<path d="M20.1815 101.104C18.5874 101.104 17.2979 99.8117 17.2979 98.2147V69.3295C17.2979 31.0994 48.3402 0 86.4964 0C124.653 0 155.695 31.0994 155.695 69.3295V86.6628C155.695 88.2598 154.405 89.5517 152.811 89.5517C151.217 89.5517 149.928 88.2598 149.928 86.6628V69.3295C149.928 34.2897 121.472 5.77775 86.4964 5.77775C51.5211 5.77775 23.065 34.2897 23.065 69.3295V98.2147C23.065 99.8117 21.7755 101.104 20.1815 101.104Z" fill="url(#paint0_linear_26_66)"/>
<path d="M158.582 115.548C153.811 115.548 149.931 111.661 149.931 106.881V77.9961C149.931 73.216 153.811 69.3295 158.582 69.3295C162.476 69.3295 166.097 70.8475 168.78 73.6108C171.481 76.2449 173 79.873 173 83.7703V101.104C173 109.07 166.531 115.548 158.582 115.548ZM158.582 75.1073C156.992 75.1073 155.699 76.4064 155.699 77.9961V106.881C155.699 108.471 156.992 109.77 158.582 109.77C163.353 109.77 167.233 105.884 167.233 101.104V83.7703C167.233 81.4448 166.334 79.2845 164.7 77.6947C163.06 76.008 160.903 75.1037 158.582 75.1037V75.1073Z" fill="url(#paint1_linear_26_66)"/>
<path d="M14.4179 115.548C6.46923 115.548 0 109.07 0 101.104V83.7704C0 79.8731 1.5188 76.2449 4.26984 73.5534C6.89908 70.844 10.5206 69.326 14.4143 69.326C19.1856 69.326 23.065 73.2125 23.065 77.9926V106.878C23.065 111.658 19.1856 115.544 14.4143 115.544L14.4179 115.548ZM14.4179 75.1073C12.0967 75.1073 9.94026 76.0116 8.3534 77.6409C6.66624 79.2881 5.76714 81.4485 5.76714 83.774V101.107C5.76714 105.887 9.64653 109.774 14.4179 109.774C16.0083 109.774 17.3014 108.475 17.3014 106.885V77.9998C17.3014 76.41 16.0083 75.1109 14.4179 75.1109V75.1073Z" fill="url(#paint2_linear_26_66)"/>
<path d="M121.099 155.989H100.918C99.3238 155.989 98.0343 154.697 98.0343 153.1C98.0343 151.503 99.3238 150.211 100.918 150.211H121.099C136.997 150.211 149.931 137.252 149.931 121.326C149.931 119.729 151.221 118.437 152.815 118.437C154.409 118.437 155.699 119.729 155.699 121.326C155.699 140.439 140.177 155.989 121.099 155.989Z" fill="url(#paint3_linear_26_66)"/>
<path d="M95.1471 161.767H83.6128C78.8415 161.767 74.9621 157.88 74.9621 153.1C74.9621 148.32 78.8415 144.433 83.6128 144.433H95.1471C99.9184 144.433 103.798 148.32 103.798 153.1C103.798 157.88 99.9184 161.767 95.1471 161.767ZM83.6164 150.211C82.0259 150.211 80.7328 151.51 80.7328 153.1C80.7328 154.69 82.0259 155.989 83.6164 155.989H95.1507C96.7411 155.989 98.0342 154.69 98.0342 153.1C98.0342 151.51 96.7411 150.211 95.1507 150.211H83.6164Z" fill="url(#paint4_linear_26_66)"/>
<path d="M103.798 103.992C102.204 103.992 100.914 102.701 100.914 101.104V92.4369H89.38C88.334 92.4369 87.3668 91.8663 86.8582 90.9476C86.3531 90.0289 86.3782 88.9057 86.937 88.0193L101.355 64.9118C102.035 63.8101 103.372 63.2933 104.593 63.6665C105.829 64.0218 106.681 65.1559 106.681 66.4406V86.6592H109.565C111.159 86.6592 112.449 87.9511 112.449 89.5481C112.449 91.145 111.159 92.4369 109.565 92.4369H106.681V101.104C106.681 102.701 105.392 103.992 103.798 103.992ZM94.5847 86.6628H100.914V76.514L94.5847 86.6628Z" fill="#837CF3"/>
<path d="M80.7328 103.992H63.4314C62.3675 103.992 61.3896 103.407 60.8881 102.471C60.3866 101.527 60.4404 100.389 61.0314 99.503L75.7645 77.3645C76.8355 75.7496 76.9322 73.7722 76.0224 72.0604C75.1126 70.3486 73.4111 69.3294 71.4767 69.3294C68.6326 69.3294 66.3186 71.6477 66.3186 74.4971C66.3186 76.0941 65.029 77.386 63.435 77.386C61.841 77.386 60.5514 76.0941 60.5514 74.4971C60.5514 68.461 65.4553 63.5517 71.4767 63.5517C75.5137 63.5517 79.2069 65.7695 81.1089 69.333C83.011 72.9002 82.8033 77.203 80.5645 80.5656L68.8188 98.2146H80.7328C82.3269 98.2146 83.6164 99.5066 83.6164 101.104C83.6164 102.7 82.3269 103.992 80.7328 103.992Z" fill="#837CF3"/>
<defs>
<linearGradient id="paint0_linear_26_66" x1="15.6969" y1="99.1246" x2="96.9158" y2="-17.309" gradientUnits="userSpaceOnUse">
<stop stop-color="#9256E2"/>
<stop offset="1" stop-color="#502F7C"/>
</linearGradient>
<linearGradient id="paint1_linear_26_66" x1="149.665" y1="114.643" x2="182.149" y2="97.6632" gradientUnits="userSpaceOnUse">
<stop stop-color="#9256E2"/>
<stop offset="1" stop-color="#502F7C"/>
</linearGradient>
<linearGradient id="paint2_linear_26_66" x1="-0.266816" y1="114.643" x2="32.2158" y2="97.668" gradientUnits="userSpaceOnUse">
<stop stop-color="#9256E2"/>
<stop offset="1" stop-color="#502F7C"/>
</linearGradient>
<linearGradient id="paint3_linear_26_66" x1="97.3672" y1="155.254" x2="126.196" y2="108.892" gradientUnits="userSpaceOnUse">
<stop stop-color="#9256E2"/>
<stop offset="1" stop-color="#502F7C"/>
</linearGradient>
<linearGradient id="paint4_linear_26_66" x1="74.6285" y1="161.427" x2="87.4401" y2="139.106" gradientUnits="userSpaceOnUse">
<stop stop-color="#9256E2"/>
<stop offset="1" stop-color="#502F7C"/>
</linearGradient>
</defs>
</svg>
